# xmcd
#
# Track frame offsets: 
#        150
#        82755
#        148265
#
# Disc length: 4113 seconds
#
# Revision: 1
# Processed by: cddbd v1.5.2PL0 Copyright (c) Steve Scherf et al.
# Submitted via: ExactAudioCopy v0.95b4
#
DISCID=1e100f03
DTITLE=Anthony Braxton - Town Hall 1972
DYEAR=2005
DGENRE=Jazz
TTITLE0=Composition I
TTITLE1=Composition II
TTITLE2=All The Things You Are, Composition III
EXTD=YEAR: 1972
EXTT0=
EXTT1=
EXTT2=
PLAYORDER=
